<mxfile host="app.diagrams.net" agent="Mozilla/5.0 (Windows NT 10.0; Win64; x64) AppleWebKit/537.36 (KHTML, like Gecko) Chrome/131.0.0.0 Safari/537.36" version="25.0.1" pages="2">
  <diagram name="Conectividad" id="eqSzeRo5f6MaMSQcNOFh">
    <mxGraphModel dx="1209" dy="617" grid="1" gridSize="10" guides="1" tooltips="1" connect="1" arrows="1" fold="1" page="1" pageScale="1" pageWidth="850" pageHeight="1100" math="0" shadow="0">
      <root>
        <mxCell id="0" />
        <mxCell id="1" parent="0" />
        <mxCell id="XXigg0SU57AGXAO_P79l-7" value="Transportistas" style="sketch=0;outlineConnect=0;fontColor=#232F3E;gradientColor=none;fillColor=#232F3D;strokeColor=none;dashed=0;verticalLabelPosition=bottom;verticalAlign=middle;align=center;html=1;fontSize=12;fontStyle=1;aspect=fixed;pointerEvents=1;shape=mxgraph.aws4.users;" vertex="1" parent="1">
          <mxGeometry x="20" y="300" width="78" height="78" as="geometry" />
        </mxCell>
        <mxCell id="XXigg0SU57AGXAO_P79l-8" value="Cliente" style="sketch=0;outlineConnect=0;fontColor=#232F3E;gradientColor=none;fillColor=#232F3D;strokeColor=none;dashed=0;verticalLabelPosition=bottom;verticalAlign=middle;align=center;html=1;fontSize=12;fontStyle=1;aspect=fixed;pointerEvents=1;shape=mxgraph.aws4.user;" vertex="1" parent="1">
          <mxGeometry x="20" y="160" width="78" height="78" as="geometry" />
        </mxCell>
        <mxCell id="XXigg0SU57AGXAO_P79l-9" value="Translazaro App" style="sketch=0;outlineConnect=0;fontColor=#232F3E;gradientColor=none;fillColor=#232F3D;strokeColor=none;dashed=0;verticalLabelPosition=bottom;verticalAlign=top;align=center;html=1;fontSize=12;fontStyle=1;aspect=fixed;pointerEvents=1;shape=mxgraph.aws4.management_console2;" vertex="1" parent="1">
          <mxGeometry x="250" y="144" width="136.78" height="121" as="geometry" />
        </mxCell>
        <mxCell id="XXigg0SU57AGXAO_P79l-10" value="Admin Sistema" style="sketch=0;outlineConnect=0;fontColor=#232F3E;gradientColor=none;fillColor=#232F3D;strokeColor=none;dashed=0;verticalLabelPosition=bottom;verticalAlign=middle;align=center;html=1;fontSize=12;fontStyle=1;aspect=fixed;pointerEvents=1;shape=mxgraph.aws4.authenticated_user;" vertex="1" parent="1">
          <mxGeometry x="20" y="30" width="78" height="78" as="geometry" />
        </mxCell>
        <mxCell id="XXigg0SU57AGXAO_P79l-11" value="AWS" style="sketch=0;outlineConnect=0;fontColor=#232F3E;gradientColor=none;fillColor=#232F3D;strokeColor=none;dashed=0;verticalLabelPosition=bottom;verticalAlign=top;align=center;html=1;fontSize=12;fontStyle=1;aspect=fixed;pointerEvents=1;shape=mxgraph.aws4.internet;" vertex="1" parent="1">
          <mxGeometry x="520" y="128" width="178.75" height="110" as="geometry" />
        </mxCell>
        <mxCell id="XXigg0SU57AGXAO_P79l-12" value="My SQL" style="sketch=0;outlineConnect=0;fontColor=#232F3E;gradientColor=none;fillColor=#232F3D;strokeColor=none;dashed=0;verticalLabelPosition=bottom;verticalAlign=top;align=center;html=1;fontSize=12;fontStyle=1;aspect=fixed;pointerEvents=1;shape=mxgraph.aws4.servers;" vertex="1" parent="1">
          <mxGeometry x="801" y="66" width="78" height="78" as="geometry" />
        </mxCell>
        <mxCell id="XXigg0SU57AGXAO_P79l-25" style="edgeStyle=orthogonalEdgeStyle;rounded=0;orthogonalLoop=1;jettySize=auto;html=1;" edge="1" parent="1" source="XXigg0SU57AGXAO_P79l-14" target="XXigg0SU57AGXAO_P79l-11">
          <mxGeometry relative="1" as="geometry" />
        </mxCell>
        <mxCell id="XXigg0SU57AGXAO_P79l-14" value="Lambda Sprintboot" style="verticalLabelPosition=bottom;html=1;verticalAlign=top;strokeWidth=1;align=center;outlineConnect=0;dashed=0;outlineConnect=0;shape=mxgraph.aws3d.lambda;fillColor=#ECECEC;strokeColor=#5E5E5E;aspect=fixed;fontStyle=1" vertex="1" parent="1">
          <mxGeometry x="793" y="200" width="92" height="109.5" as="geometry" />
        </mxCell>
        <mxCell id="XXigg0SU57AGXAO_P79l-16" value="" style="endArrow=classic;startArrow=classic;html=1;rounded=0;" edge="1" parent="1" source="XXigg0SU57AGXAO_P79l-10" target="XXigg0SU57AGXAO_P79l-9">
          <mxGeometry width="50" height="50" relative="1" as="geometry">
            <mxPoint x="400" y="300" as="sourcePoint" />
            <mxPoint x="450" y="250" as="targetPoint" />
          </mxGeometry>
        </mxCell>
        <mxCell id="XXigg0SU57AGXAO_P79l-17" value="" style="endArrow=classic;startArrow=classic;html=1;rounded=0;" edge="1" parent="1" source="XXigg0SU57AGXAO_P79l-8" target="XXigg0SU57AGXAO_P79l-9">
          <mxGeometry width="50" height="50" relative="1" as="geometry">
            <mxPoint x="400" y="300" as="sourcePoint" />
            <mxPoint x="450" y="250" as="targetPoint" />
          </mxGeometry>
        </mxCell>
        <mxCell id="XXigg0SU57AGXAO_P79l-18" value="" style="endArrow=classic;startArrow=classic;html=1;rounded=0;" edge="1" parent="1" source="XXigg0SU57AGXAO_P79l-7" target="XXigg0SU57AGXAO_P79l-9">
          <mxGeometry width="50" height="50" relative="1" as="geometry">
            <mxPoint x="400" y="300" as="sourcePoint" />
            <mxPoint x="450" y="250" as="targetPoint" />
          </mxGeometry>
        </mxCell>
        <mxCell id="XXigg0SU57AGXAO_P79l-19" value="" style="endArrow=classic;startArrow=classic;html=1;rounded=0;" edge="1" parent="1">
          <mxGeometry width="50" height="50" relative="1" as="geometry">
            <mxPoint x="396.64641025641026" y="203.99931316106836" as="sourcePoint" />
            <mxPoint x="520" y="204.24" as="targetPoint" />
            <Array as="points">
              <mxPoint x="460" y="204.24" />
            </Array>
          </mxGeometry>
        </mxCell>
        <mxCell id="XXigg0SU57AGXAO_P79l-20" value="" style="endArrow=classic;html=1;rounded=0;" edge="1" parent="1" source="XXigg0SU57AGXAO_P79l-12" target="XXigg0SU57AGXAO_P79l-14">
          <mxGeometry width="50" height="50" relative="1" as="geometry">
            <mxPoint x="400" y="300" as="sourcePoint" />
            <mxPoint x="450" y="250" as="targetPoint" />
          </mxGeometry>
        </mxCell>
      </root>
    </mxGraphModel>
  </diagram>
  <diagram id="SPcQMozNXB-HQZ9BWPp8" name="DG Secuencia">
    <mxGraphModel dx="1209" dy="617" grid="1" gridSize="10" guides="1" tooltips="1" connect="1" arrows="1" fold="1" page="1" pageScale="1" pageWidth="850" pageHeight="1100" math="0" shadow="0">
      <root>
        <mxCell id="0" />
        <mxCell id="1" parent="0" />
      </root>
    </mxGraphModel>
  </diagram>
</mxfile>
